# xmcd
#
# Track frame offsets:
#	150
#	22816
#	44312
#	63050
#	78541
#	95523
#	114275
#	128527
#	149020
#	161488
#	179836
#	209106
#	229794
#	251234
#
# Disc length: 3572 seconds
#
# Revision: 0
# Processed by: cddbd v1.5PL3 Copyright (c) Steve Scherf et al.
# Submitted via: dBpowerAMP V4.0
#
DISCID=c30df20e
DTITLE=Billy Andrews - All The Time In The World
DYEAR=1900
DGENRE=
TTITLE0=Night Train
TTITLE1=Floating Bridge
TTITLE2=All The Time In The World
TTITLE3=Early In The Morning
TTITLE4=Jupiter Child
TTITLE5=New Speedway Boogie
TTITLE6=Weymors Blues
TTITLE7=The Pusher 
TTITLE8=Gotta Live
TTITLE9=Guilty 
TTITLE10=Blue Jean Blues
TTITLE11=Give It Up 
TTITLE12=Lawdy Mama 
TTITLE13=Wang Dang Doodle 
EXTD=Mark Newman
EXTT0=
EXTT1=
EXTT2=
EXTT3=
EXTT4=
EXTT5=
EXTT6=
EXTT7=
EXTT8=
EXTT9=
EXTT10=
EXTT11=
EXTT12=
EXTT13=
PLAYORDER=
